<?xml version="1.0" encoding="utf-8"?>
<!-- Generator: Adobe Illustrator 26.0.3, SVG Export Plug-In . SVG Version: 6.00 Build 0)  -->
<svg version="1.1" id="Шар_1" xmlns="http://www.w3.org/2000/svg" xmlns:xlink="http://www.w3.org/1999/xlink" x="0px" y="0px"
	 viewBox="0 0 500 1200" style="enable-background:new 0 0 500 1200;" xml:space="preserve">
<style type="text/css">
	.st0{fill:#FFFFFF;}
</style>
<g>
	<rect x="199.4" class="st0" width="100" height="470"/>
	<rect x="199.4" y="730" class="st0" width="100" height="470"/>
</g>
<path class="st0" d="M428,370H72c-28.7,0-52,23.3-52,52V778c0,28.7,23.3,52,52,52H428c28.7,0,52-23.3,52-52V422
	C480,393.3,456.7,370,428,370z M380,677.7c0,28.9-23.4,52.3-52.3,52.3H172.3c-28.9,0-52.3-23.4-52.3-52.3V522.3
	c0-28.9,23.4-52.3,52.3-52.3h155.3c28.9,0,52.3,23.4,52.3,52.3V677.7z"/>
</svg>
