<?xml version="1.0" encoding="utf-8"?>
<!-- Generator: Adobe Illustrator 26.0.3, SVG Export Plug-In . SVG Version: 6.00 Build 0)  -->
<svg version="1.1" id="Шар_1" xmlns="http://www.w3.org/2000/svg" xmlns:xlink="http://www.w3.org/1999/xlink" x="0px" y="0px"
	 viewBox="0 0 500 500" style="enable-background:new 0 0 500 500;" xml:space="preserve">
<style type="text/css">
	.st0{fill:#FFFFFF;}
</style>
<path class="st0" d="M322.1,260.7c-1.8,0.4-3.5,0.6-5.2,0.6c-20.3,0-32.7-26.8-18.2-44.5c11.3-13.8,16.3-30.2,16.3-46.1
	c0-35.9-25.6-70.2-63.9-70.6h-2.2c-55.3,0.6-84.2,71.7-47.6,116.7c15.7,19.2-0.2,49-23.4,44c-4.5-1-9-1.5-13.3-1.5
	c-47.5,0-81,56.6-56.1,104.5c0.2,0.4,0.4,0.7,0.6,1c0.2,0.4,0.4,0.7,0.6,1c28.1,51.6,99.4,43.1,117-13.7
	c3.8-12.2,13.6-18.2,23.4-18.2s19.6,6.1,23.4,18.2c9.7,31.3,35.7,48,61.8,48c21.3,0,42.6-11.1,55.2-34.3c0.2-0.4,0.4-0.7,0.6-1
	c0.2-0.3,0.4-0.7,0.6-1C418.7,311.4,376.3,248.8,322.1,260.7z M250,295.6c-10.4,0-18.9-9.2-18.9-20.5c0-11.3,8.5-20.5,18.9-20.5
	s18.9,9.2,18.9,20.5C268.9,286.5,260.4,295.6,250,295.6z"/>
</svg>
