<?xml version="1.0" encoding="utf-8"?>
<!-- Generator: Adobe Illustrator 26.0.3, SVG Export Plug-In . SVG Version: 6.00 Build 0)  -->
<svg version="1.1" id="Шар_1" xmlns="http://www.w3.org/2000/svg" xmlns:xlink="http://www.w3.org/1999/xlink" x="0px" y="0px"
	 viewBox="0 0 500 1200" style="enable-background:new 0 0 500 1200;" xml:space="preserve">
<style type="text/css">
	.st0{fill:#FFFFFF;}
</style>
<g>
	<path class="st0" d="M299.4,0v479.7c-15.2-6.3-31.9-9.7-49.4-9.7c-17.9,0-35,3.6-50.6,10.2V0H299.4z"/>
	<path class="st0" d="M250,730c17.5,0,34.2-3.5,49.4-9.7V1200h-100V719.8C215,726.4,232.1,730,250,730z"/>
</g>
<path class="st0" d="M299.4,375.3c-15.9-3.5-32.5-5.3-49.4-5.3c-17.4,0-34.3,1.9-50.6,5.6C96.7,398.6,20,490.3,20,600
	s76.7,201.4,179.4,224.4c16.3,3.7,33.2,5.6,50.6,5.6c17,0,33.5-1.8,49.4-5.3C402.7,802.1,480,710.1,480,600S402.7,397.9,299.4,375.3
	z M299.4,720.3c-15.2,6.3-31.9,9.7-49.4,9.7c-17.9,0-35-3.6-50.6-10.2C152.8,700.1,120,653.9,120,600s32.8-100.1,79.4-119.8
	C215,473.6,232.1,470,250,470c17.5,0,34.2,3.5,49.4,9.7c47.3,19.5,80.6,66,80.6,120.3S346.7,700.8,299.4,720.3z"/>
</svg>
